<svg width="284" height="70" fill="none" xmlns="http://www.w3.org/2000/svg"><path d="M-11.005 88.87V-19.043h306.867V88.871H-11.005zM161.253.347c-.163 0-.306-.019-.429 0a3780.76 3780.76 0 00-20.376 3.559c-.265.038-.592.423-.633.692-.204 1.097.021 1.308 1.246 1.443 2.94.327 4.492 1.539 5.104 4.29.347 1.558.572 3.155.613 4.732.142 4.982.265 9.983.224 14.966a4279.298 4279.298 0 01-.408 36.182c-.021.943.265 1.347 1.266 1.5 3.45.501 6.86 1.136 10.331 1.56 4.553.557 9.146.634 13.679-.27 7.473-1.481 13.291-5.175 16.987-11.58 2.042-3.559 3.042-7.406 3.41-11.427.428-4.616.081-9.137-1.716-13.484-2.245-5.463-5.941-9.733-11.984-11.657-5.574-1.77-11.046-.962-16.273 1.423-.306.135-.653.25-1 .385-.041-7.463-.041-14.85-.041-22.314zM57.678 1.52H2.266C0 1.539.326 1.212.286 3.443c0 .096-.041.231.02.289.184.211.388.52.633.558.694.134 1.409.154 2.124.211 2.633.231 4.655 1.347 5.696 3.713.388.885.776 1.808.878 2.731.408 4.348.96 8.714.98 13.08.04 10.08-.184 20.16-.368 30.22-.04 2.482-.388 4.964-1.388 7.31-.837 1.962-2.266 3.29-4.594 3.636-.96.135-1.92.327-2.9.52-1.102.211-1.163.403-1.081 1.923.061.943.755.654 1.266.654 7.268.02 14.557 0 21.825 0h12.761c.49 0 1.062 0 .919-.673-.143-.616.592-1.558-.674-1.79-1.02-.192-2.062-.422-3.103-.519-2.818-.23-4.635-1.635-5.554-4.116-.96-2.597-1.204-5.29-1.286-8.002-.163-5.136-.347-10.292-.53-15.428-.042-.807.285-1.058 1.122-1.02 2.43.155 4.88.27 7.33.366 1.898.077 3.47.808 4.696 2.155 1.653 1.846 2.327 4.078 2.878 6.367.062.27.368.635.613.673.715.096 1.47.039 2.225.039V23.814c-.653 0-1.225.039-1.796 0-.695-.058-.92.173-1.123.847-.51 1.712-1.082 3.443-1.94 5.001-1.123 2.058-3.022 3.232-5.553 3.366-2.45.135-4.88.193-7.33.347-.858.057-1.164-.193-1.143-1 .081-2.02.102-4.021.143-6.04.102-4.887.183-9.792.285-14.678.041-1.5.143-3 .184-4.501.02-.693.225-1 1.082-1 3.839.057 7.677 0 11.536.057 4.145.058 7.513 1.712 10.188 4.675 2.164 2.404 3.512 5.213 4.675 8.117.837 2.078.817 2.059 3.083 1.443.674-.192.899-.481.878-1.135-.102-4.155-.163-8.31-.224-12.465-.062-1.712-.041-3.443-.041-5.328zm-6.84 44.127c-.04 2.674.51 6.367 1.879 9.907 2.43 6.232 6.819 10.676 13.577 12.83 4.042 1.289 8.228 1.5 12.454 1.039 8.024-.885 14.292-4.444 18.15-11.176 4.881-8.56 4.819-17.467 1.042-26.334-2.368-5.54-6.717-9.291-12.74-11.253-4.206-1.366-8.575-1.559-12.965-1.04-6.86.809-12.413 3.733-16.435 9.061-3.573 4.732-4.982 10.118-4.962 16.966zm189.123 13.715c-1.103.616-2.165 1.308-3.308 1.847-3.001 1.404-6.207 1.693-9.514 1.443-4.676-.385-8.535-2.174-11.373-5.733-3.103-3.904-3.981-8.463-4.185-13.176-.061-1.54-.02-1.558 1.572-1.558 9.208 0 18.437-.02 27.645.019.878 0 1.225-.192 1.143-1.058-.265-3.059-.572-6.098-1.613-9.022-1.94-5.463-5.41-9.618-11.311-11.657-3.553-1.212-7.248-1.27-10.943-.846-7.33.846-13.047 4.174-16.926 10.08-4.431 6.751-5.349 14.1-3.593 21.755 1.612 7.002 5.675 12.388 12.536 15.678 5.39 2.597 11.147 3.116 17.027 1.981 5.207-1 9.658-3.328 13.149-7.136 1.184-1.309 1.143-1.385-.306-2.617zm38.894-24.545c2.082-.48 2.103-.48 2.062-2.366-.061-3.193-.163-6.386-.184-9.599 0-.769-.265-1.134-1.041-1.385a38.154 38.154 0 00-9.412-1.923c-4.329-.327-8.596-.308-12.781 1-6.411 2-10.78 7.06-11.209 13.158-.327 4.693 1.184 8.694 5.349 11.58 2.491 1.73 5.39 2.674 8.187 3.79 2.43.961 4.859 2 7.065 3.327 2.654 1.597 3.572 4.078 2.899 7.021-.654 2.809-2.409 4.751-5.35 5.483-4.553 1.115-8.452-.154-11.617-3.367-2.368-2.404-3.777-5.348-5.043-8.367-.143-.327-.653-.847-.816-.79-.695.212-1.756.02-1.715 1.29.142 4.116.183 8.252.224 12.368 0 .654.306.943.898 1.078 2.961.673 5.881 1.462 8.882 1.962 4.634.75 9.31.885 13.965-.039 4.104-.827 7.759-2.462 10.576-5.54 2.879-3.154 3.9-6.867 3.736-10.926-.122-2.981-1.082-5.636-3.307-7.81-2.409-2.366-5.452-3.75-8.616-4.982-3.165-1.25-6.35-2.443-9.147-4.347-2.532-1.731-3.695-3.963-3.226-6.964.429-2.673 2.43-4.924 5.227-5.52 2.327-.5 4.532-.077 6.595.942 3.021 1.5 4.675 4.098 6.043 6.906.674 1.289 1.184 2.635 1.756 4.02zM122.502 19.428c-.245.02-.429.039-.572.058-6.595 1.25-13.189 2.52-19.784 3.77-.776.154-1.184.366-1.164 1.212.021.885.531.924 1.246 1 3.736.404 4.92 1.386 5.39 4.944a68.16 68.16 0 01.571 8.406c.041 5.79-.04 11.58-.204 17.37a33.019 33.019 0 01-.816 6.33c-.388 1.711-1.715 2.77-3.655 3.02-.633.076-1.266.21-1.899.326-.184.039-.49.135-.51.231-.061.635-.143 1.289.02 1.885.041.193.796.308 1.225.308 8.902.02 17.824.02 26.726 0 2.368 0 2.083.462 2.062-2.078 0-.076-.082-.173-.143-.307-.919-.077-1.858-.193-2.817-.231-3.145-.135-4.778-1.327-5.166-4.251-.429-3.347-.735-6.733-.796-10.118-.082-5.406.143-10.811.082-16.216-.021-1.616.755-2.424 2.123-2.963 4.247-1.712 8.33-1.154 12.291.847.306.154.633.307 1 .48 1.613-4.02 3.124-7.944 4.737-11.83.368-.904.204-1.308-.735-1.635-4.369-1.577-8.391-.846-12.148 1.578-2.899 1.885-4.859 4.52-6.431 7.425-.164.308-.368.596-.674 1.058.041-3.636.041-7.08.041-10.619z" fill="#fff"/><path d="M161.253.346V22.7c.347-.135.674-.25 1.001-.385 5.247-2.385 10.698-3.193 16.272-1.424 6.043 1.924 9.739 6.194 11.985 11.657 1.796 4.348 2.123 8.868 1.715 13.485-.368 4.02-1.368 7.868-3.41 11.426-3.695 6.406-9.514 10.1-16.987 11.58-4.532.885-9.106.827-13.679.27-3.451-.424-6.881-1.058-10.331-1.559-1.001-.134-1.286-.557-1.266-1.5.163-12.06.327-24.122.408-36.183.041-4.982-.081-9.983-.224-14.966a24.666 24.666 0 00-.613-4.732c-.612-2.75-2.144-3.962-5.104-4.29-1.225-.134-1.429-.346-1.245-1.442.04-.27.387-.635.632-.693A3450.217 3450.217 0 01160.784.385c.163-.058.285-.039.469-.039zm-.122 40.473c-.021 3.905-.041 7.79 0 11.695.041 3.905.143 7.791.204 11.696.02 1.731.02 1.77 1.858 1.981 2.96.347 5.594-.288 7.697-2.385 1.633-1.635 2.777-3.54 3.634-5.598 2.307-5.54 2.899-11.33 2.573-17.216-.184-3.347-.837-6.636-2.369-9.733-.939-1.905-2.143-3.636-4.001-4.867-2.797-1.847-5.799-1.635-8.861-.692-.613.192-.776.461-.776 1.019.061 4.713.041 9.406.041 14.1zM57.678 1.52c0 1.885-.02 3.597 0 5.328.061 4.155.122 8.31.225 12.465.02.654-.205.962-.878 1.135-2.267.635-2.246.654-3.083-1.443-1.164-2.904-2.512-5.732-4.676-8.117-2.674-2.963-6.023-4.617-10.188-4.675-3.838-.057-7.677 0-11.536-.057-.857-.02-1.061.307-1.082 1-.04 1.5-.143 3-.183 4.501-.103 4.886-.184 9.791-.286 14.677-.041 2.02-.061 4.02-.143 6.04-.02.808.265 1.058 1.143 1 2.43-.153 4.88-.23 7.33-.346 2.532-.134 4.43-1.327 5.553-3.366.858-1.577 1.41-3.309 1.94-5.001.204-.674.429-.905 1.123-.847.572.039 1.143 0 1.797 0V46.34c-.756 0-1.49.057-2.226-.039-.245-.019-.551-.404-.612-.673-.552-2.29-1.205-4.52-2.88-6.367-1.224-1.366-2.796-2.078-4.695-2.155-2.45-.096-4.88-.211-7.33-.365-.837-.058-1.163.192-1.123 1.02a1296.5 1296.5 0 01.531 15.427c.082 2.712.327 5.405 1.286 8.002.92 2.481 2.736 3.866 5.554 4.116 1.041.097 2.062.327 3.103.52 1.266.23.531 1.173.674 1.789.143.673-.429.673-.919.673H1.511c-.49 0-1.205.27-1.266-.654-.082-1.52-.02-1.712 1.082-1.924.96-.173 1.92-.365 2.9-.519 2.327-.346 3.736-1.674 4.593-3.636 1-2.346 1.348-4.828 1.389-7.31.183-10.079.408-20.159.367-30.22-.02-4.366-.572-8.713-.98-13.08-.082-.923-.49-1.866-.878-2.731C7.677 5.848 5.655 4.75 3.022 4.5c-.715-.057-1.43-.096-2.124-.23-.245-.039-.449-.347-.633-.558-.06-.058-.02-.193-.02-.289C.327 1.212 0 1.539 2.266 1.52h55.412zm-6.84 44.127c-.02-6.848 1.389-12.234 4.962-16.985 4.022-5.329 9.575-8.272 16.435-9.06 4.39-.52 8.739-.328 12.965 1.038 6.023 1.962 10.372 5.713 12.74 11.253 3.777 8.887 3.859 17.774-1.041 26.334-3.838 6.733-10.127 10.292-18.15 11.177-4.227.461-8.413.25-12.455-1.04-6.779-2.154-11.148-6.597-13.577-12.83-1.368-3.52-1.92-7.213-1.879-9.887zm34.607-2.154c-.204-1.905-.429-5.348-.94-8.753-.51-3.29-1.51-6.482-3.593-9.252-2.593-3.444-6.92-4.098-10.045-1.443-1.531 1.308-2.348 3.04-2.96 4.847-1.082 3.155-1.47 6.406-1.674 9.695-.348 5.637-.348 11.234.857 16.794.633 2.981 1.572 5.867 3.491 8.386 2.695 3.52 7.453 3.77 10.495.52 1.347-1.443 2.123-3.193 2.654-5.002 1.388-4.674 1.531-9.464 1.715-15.792zm154.516 15.869c1.47 1.212 1.49 1.308.306 2.597-3.491 3.828-7.963 6.137-13.149 7.137-5.88 1.135-11.637.615-17.027-1.981-6.861-3.309-10.944-8.695-12.536-15.678-1.756-7.656-.838-15.023 3.593-21.756 3.879-5.905 9.596-9.233 16.926-10.08 3.715-.423 7.391-.365 10.943.847 5.921 2.02 9.371 6.194 11.311 11.657 1.041 2.943 1.348 5.982 1.613 9.022.082.885-.286 1.058-1.143 1.058-9.208-.02-18.437-.02-27.645-.02-1.613 0-1.654 0-1.572 1.559.204 4.732 1.062 9.271 4.186 13.176 2.837 3.559 6.696 5.367 11.372 5.733 3.307.269 6.513-.02 9.514-1.443 1.143-.52 2.205-1.212 3.308-1.828zm-13.047-20.928c.041-.231.102-.385.082-.539-.143-2.27-.184-4.54-.49-6.771-.306-2.308-.878-4.578-2.287-6.579-1.592-2.27-4.267-2.75-6.615-1.192-1.613 1.058-2.593 2.596-3.389 4.231-1.511 3.155-2.246 6.464-2.491 9.907-.102 1.366-.123 1.366 1.327 1.347 3.777-.077 7.534-.135 11.311-.231.858-.058 1.695-.135 2.552-.173zm51.941-3.617c-.592-1.385-1.103-2.731-1.735-4.02-1.368-2.79-3.022-5.386-6.044-6.906-2.062-1.039-4.267-1.443-6.595-.942a6.712 6.712 0 00-5.226 5.52c-.49 3.001.694 5.232 3.226 6.964 2.797 1.904 5.982 3.116 9.146 4.347 3.145 1.231 6.187 2.616 8.616 4.982 2.226 2.193 3.185 4.848 3.308 7.81.184 4.078-.858 7.79-3.736 10.926-2.798 3.059-6.452 4.713-10.576 5.54-4.635.923-9.331.789-13.966.038-2.981-.48-5.921-1.288-8.881-1.961-.592-.135-.878-.424-.898-1.078a622.213 622.213 0 00-.225-12.369c-.041-1.288 1-1.077 1.715-1.288.163-.058.674.461.817.788 1.245 3.02 2.654 5.964 5.043 8.368 3.164 3.212 7.064 4.482 11.617 3.366 2.94-.711 4.716-2.674 5.349-5.482.674-2.943-.245-5.425-2.899-7.021-2.205-1.327-4.655-2.366-7.064-3.328-2.818-1.116-5.697-2.058-8.187-3.79-4.166-2.885-5.676-6.867-5.35-11.58.429-6.117 4.819-11.157 11.209-13.157 4.186-1.308 8.453-1.327 12.781-1 3.226.25 6.35.885 9.412 1.923.756.25 1.021.616 1.042 1.385.02 3.194.122 6.387.183 9.6.021 1.884 0 1.884-2.082 2.365z" fill="#000"/><path d="M122.502 19.428v10.657c.286-.462.49-.75.674-1.058 1.572-2.905 3.532-5.54 6.431-7.425 3.757-2.443 7.779-3.155 12.148-1.577.919.327 1.103.75.735 1.635-1.613 3.885-3.144 7.79-4.737 11.83-.367-.173-.694-.327-1-.481-3.961-2-8.044-2.558-12.291-.846-1.368.557-2.144 1.346-2.124 2.962.062 5.405-.163 10.81-.081 16.216.061 3.366.347 6.752.796 10.118.368 2.924 2.021 4.117 5.166 4.251.939.039 1.878.154 2.817.231.061.135.143.23.143.308.02 2.539.306 2.058-2.062 2.077-8.902.02-17.824.02-26.726 0-.429 0-1.184-.115-1.225-.307-.163-.597-.061-1.25-.02-1.886 0-.096.326-.192.51-.23.633-.135 1.266-.25 1.899-.327 1.939-.25 3.267-1.308 3.654-3.02.47-2.078.756-4.213.817-6.33.164-5.79.245-11.58.204-17.37a68.159 68.159 0 00-.571-8.405c-.47-3.56-1.654-4.54-5.39-4.944-.715-.077-1.205-.116-1.246-1-.02-.847.388-1.058 1.164-1.212 6.595-1.231 13.189-2.5 19.784-3.77.102-.077.286-.077.531-.097z" fill="#000"/><path d="M161.131 40.819c0-4.694 0-9.407-.021-14.1 0-.558.164-.847.776-1.02 3.063-.923 6.064-1.154 8.861.693 1.858 1.23 3.063 2.962 4.002 4.867 1.531 3.077 2.184 6.386 2.368 9.733.327 5.886-.265 11.676-2.572 17.216-.858 2.059-2.001 3.982-3.635 5.598-2.123 2.097-4.736 2.75-7.697 2.385-1.837-.211-1.837-.25-1.858-1.981-.061-3.905-.183-7.79-.204-11.696-.041-3.885-.02-7.79-.02-11.695zm-75.686 2.674c-.184 6.328-.327 11.118-1.715 15.773-.551 1.828-1.307 3.559-2.654 5.002-3.042 3.231-7.8 3-10.495-.52-1.919-2.52-2.858-5.405-3.49-8.387-1.206-5.559-1.206-11.157-.858-16.793.204-3.29.592-6.54 1.674-9.695.612-1.808 1.429-3.54 2.96-4.847 3.104-2.636 7.453-2 10.045 1.442 2.083 2.77 3.104 5.964 3.594 9.253.51 3.424.735 6.867.939 8.772zm141.469-5.059c-.857.057-1.694.134-2.531.153l-11.312.231c-1.449.02-1.429.02-1.327-1.346.245-3.424.98-6.752 2.491-9.907.797-1.635 1.756-3.174 3.389-4.232 2.369-1.558 5.023-1.077 6.616 1.193 1.408 2 1.98 4.27 2.286 6.579.307 2.25.347 4.52.49 6.77-.02.155-.061.309-.102.559z" fill="#fff"/></svg>