<svg width="274" height="52" fill="none" xmlns="http://www.w3.org/2000/svg"><path fill-rule="evenodd" clip-rule="evenodd" d="M17.776 9.641c-.681 0-1.25-.123-1.893-.244v17.908c0 .426-.038.547-.19.729L9.325 34.53c.948.73 2.085 1.216 3.26 1.216 4.016 0 8.562-3.524 10.685-12.325.113-.487.378-.608.378.242v.608c0 9.65-4.586 18.331-11.366 18.331-7.39 0-11.822-8.924-11.822-18.21 0-6.98 2.384-13.477 7.804-16.208.229-.124.267.057.114.242-2.387 2.973-3.676 7.83-3.676 12.687 0 5.16 1.29 10.26 4.168 12.994l1.592-1.945c.532-.668.644-1.273.644-2.247V7.818c-1.743-1.031-3.295-1.64-4.737-1.64-1.969 0-3.751 1.395-5.493 4.797-.19.364-.304.364-.304 0C.8 4.116 4.627.23 8.417.23c4.358 0 8.374 3.402 12.77 3.402 1.552 0 3.145-.55 4.47-1.702.19-.121.227.12.151.362-1.363 5.466-4.698 7.35-8.032 7.35zM38.39 42.058c-.153.242-.153.181-.267.06l-3.031-4.31c-.304-.426-.455-.789-.455-1.578V19.595c0-.18 0-.365-.151-.547l-1.024-1.458c-.115-.118-.266-.179-.416-.058l-1.932 1.455v15.667c0 .242-.04.484.113.665l.872 1.213c.227.303.605.669.947.487l.301-.184c.38-.243.457.12.229.426l-3.485 4.797c-.153.242-.19.181-.304.06l-3.07-4.37c-.377-.487-.377-.608-.377-1.397V9.397c0-.302 0-.366-.19-.608l-.38-.548c-.378-.544-.529-.423-1.021-.057l-.76.544c-.113.061-.226-.181-.037-.487l4.015-5.401c.153-.242.153-.181.266-.06l2.426 3.583c.304.484.455.787.455 1.576v10.138l5.038-5.099c.153-.122.304-.122.418.06l2.464 3.645c.34.484.415.85.415 1.454v16.635c0 .306 0 .366.19.608l.948 1.273c.378.548.529.426 1.021.064l.76-.547c.112-.061.228.18.037.483l-4.015 5.405zm16.14-20.094l-6.707 6.738v5.16c0 .483.038.668.304.85l2.16 1.82c.377.303 1.023.608 1.402.242l2.009-1.878c.34-.306.606-.124.415.121l-5.493 7.102c-.115.18-.076.12-.227 0l-4.89-4.13c-.38-.301-.492-.425-.492-1.272V17.532c0-.305.077-.426.302-.547l7.997-4.129c.113-.06.226-.12.301.122l2.994 8.499c.076.184.076.366-.075.487zm-6.63-5.89l-.077.058v11.783l2.653-3.523c.152-.181.152-.306.077-.484L47.9 16.075zm34.02 18.395l-5.456 7.529c-.152.18-.266.302-.417.18-3.26-2.61-6.063-4.067-8.905-4.067-2.35 0-4.66 1.274-7.237 4.008-.229.242-.38.18-.229-.242 1.365-3.524 3.185-7.223 5.458-8.926.037-.241.077-1.031.077-2.126V12.978c0-.242.076-.363.227-.484l4.319-4.19c-.948.304-2.008.549-2.919.549-3.94 0-5.948-3.158-6.669-8.136-.038-.245.038-.305.151-.245 2.01 1.579 3.677 2.126 5.307 2.126 2.727 0 6.63-2.368 9.018-2.368 4.811 0 7.466 3.218 7.466 13.722v19.849c0 .306-.078.487-.19.668zm-4.585-20.517c0-5.586-1.099-7.105-2.804-7.105-1.251 0-2.843.79-4.547 1.394v18.213c0 .306-.076.548-.19.672l-4.507 5.762a6.668 6.668 0 013.75-1.15c2.765 0 5.685 1.637 8.033 3.4.19.181.265 0 .265-.306v-20.88zM95.68 42.058c-.15.242-.188.181-.302.06l-3.449-4.857-4.092 4.858c-.151.18-.19.12-.34-.061l-2.615-3.766c-.417-.544-.455-.668-.455-1.397V19.17c0-.305.151-.365.227-.426l8.791-5.828c.151-.12.302-.12.455.121l2.349 3.765c.34.545.456.851.456 1.214v17.121l.682.97c.832 1.153.945 1.093 1.325.787l.53-.424c.342-.301.606-.06.303.364l-3.865 5.223zm-3.75-22.584c0-.366-.04-.547-.227-.85l-1.365-2.183c-.076-.124-.076-.061-.19 0l-.949.665v17.548c0 .605.078.908.344 1.273l.493.726c.34.487.757.729 1.25.366l.643-.487V19.474zm12.579 22.584c-.153.242-.19.181-.304.06l-3.067-4.37c-.38-.487-.38-.608-.38-1.397V19.595c0-.302 0-.365-.188-.608l-.38-.544c-.38-.547-.53-.426-1.023-.064l-.76.548c-.112.06-.225-.182-.037-.484l4.018-5.405c.153-.242.153-.182.264-.06l2.426 3.58c.304.487.454.79.454 1.58v16.516c0 .242-.037.484.114.665l.872 1.213c.229.303.606.669.946.487l.304-.184c.379-.243.455.12.228.426l-3.487 4.797zm-1.933-30.535c-.111.181-.151.121-.264 0l-2.881-4.068c-.076-.124-.076-.245.038-.427l2.843-4.007c.113-.12.153-.12.264 0l2.881 4.068c.113.121.113.242 0 .366l-2.881 4.068zm10.459 30.535c-.152.242-.189.181-.303.06l-3.071-4.37c-.377-.487-.377-.608-.377-1.397V9.397c0-.302 0-.366-.189-.608l-.38-.548c-.379-.544-.53-.423-1.023-.057l-.757.544c-.115.061-.228-.181-.037-.487l4.015-5.401c.151-.242.151-.181.266-.06l2.424 3.583c.304.484.455.787.455 1.576v26.715c0 .242-.038.484.115.665l.87 1.213c.227.303.606.669.946.487l.306-.184c.378-.243.453.12.226.426l-3.486 4.797zm17.241 4.189l-4.169 5.402c-.113.18-.19.123-.263.06-2.2-2.368-3.941-3.46-5.836-3.46-1.327 0-2.652.423-4.359 1.153-.151.063-.189-.121-.113-.303 1.78-4.31 3.979-5.644 6.026-5.644 3.03 0 5.872 2.973 7.009 4.186l.113-.121c.302-1.092.418-2.126.418-3.097 0-3.094-1.592-5.583-3.562-7.162l-4.056 4.797c-.189.181-.226.181-.339.06l-2.729-3.947c-.379-.547-.379-.547-.379-1.397V19.716c0-.302 0-.363-.189-.608l-.532-.729c-.378-.544-.528-.423-1.021-.06l-.759.547c-.113.061-.226-.18-.038-.487l4.017-5.4c.152-.243.152-.182.264-.062l2.578 3.766c.301.484.454.79.454 1.579v16.57c0 .306.039.608.151.79l.911 1.334c.263.426.756.245 1.06 0l.607-.424V19.656c0-.303 0-.303-.189-.548l-.533-.729c-.378-.544-.493-.483-1.023-.242l-.302.125c-.113.057-.227-.185-.038-.487l3.563-4.797c.15-.242.15-.181.264-.06l2.577 3.765c.303.484.454.79.454 1.579v15.966c1.592 1.88 2.275 3.762 2.275 5.644 0 2.126-.645 4.188-2.312 6.375zM156.194 9.64c-.681 0-1.25-.123-1.893-.244v17.908c0 .426-.04.547-.191.729l-6.364 6.496c.946.73 2.083 1.216 3.259 1.216 4.015 0 8.561-3.524 10.682-12.325.116-.487.382-.608.382.242v.608c0 9.65-4.585 18.331-11.368 18.331-7.389 0-11.824-8.924-11.824-18.21 0-6.98 2.389-13.477 7.807-16.208.226-.124.266.057.113.242-2.388 2.973-3.676 7.83-3.676 12.687 0 5.16 1.288 10.26 4.168 12.994l1.592-1.824c.568-.605.646-1.274.646-2.244V7.818c-1.745-1.031-3.298-1.64-4.737-1.64-1.971 0-3.751 1.395-5.493 4.797-.191.364-.306.364-.306 0C139.219 4.116 143.046.23 146.836.23c4.358 0 8.373 3.402 12.768 3.402 1.555 0 3.145-.55 4.472-1.702.19-.121.226.12.153.362-1.365 5.466-4.701 7.35-8.035 7.35zm19.173 12.323l-6.706 6.738v5.16c0 .483.038.668.302.85l2.16 1.82c.379.303 1.025.608 1.402.242l2.009-1.878c.342-.306.606-.124.417.121l-5.495 7.102c-.113.18-.076.12-.227 0l-4.887-4.13c-.38-.301-.493-.425-.493-1.272V17.532c0-.305.074-.426.302-.547l7.997-4.129c.113-.06.226-.12.304.122l2.992 8.499c.077.184.077.366-.077.487zm-6.631-5.89l-.075.058v11.783l2.653-3.523c.151-.181.151-.306.075-.484l-2.653-7.833zm11.937 25.984c-.153.242-.188.181-.302.06l-3.071-4.37c-.378-.487-.378-.608-.378-1.397V9.397c0-.302 0-.366-.191-.608l-.377-.548c-.379-.544-.532-.423-1.023-.057l-.759.544c-.113.061-.228-.181-.038-.487l4.016-5.401c.151-.242.151-.181.266-.06l2.425 3.583c.304.484.455.787.455 1.576v26.715c0 .242-.039.484.112.665l.874 1.213c.226.303.606.669.945.487l.304-.184c.38-.243.454.12.227.426l-3.485 4.797zm15.801-20.094l-6.706 6.738v5.16c0 .483.036.668.303.85l2.159 1.82c.378.303 1.023.608 1.401.242l2.009-1.878c.341-.306.605-.124.417.121l-5.496 7.102c-.111.18-.073.12-.226 0l-4.888-4.13c-.379-.301-.494-.425-.494-1.272V17.532c0-.305.077-.426.304-.547l7.996-4.129c.113-.06.227-.12.302.122l2.994 8.499c.076.184.076.366-.075.487zm-6.634-5.89l-.072.058v11.783l2.653-3.523c.149-.181.149-.306.073-.484l-2.654-7.833zm20.426 30.173l-4.168 5.402c-.113.18-.189.123-.264.06-2.2-2.368-3.942-3.46-5.836-3.46-1.327 0-2.654.423-4.358 1.153-.152.063-.189-.121-.114-.303 1.781-4.31 3.979-5.644 6.026-5.644 3.032 0 5.871 2.973 7.009 4.186l.114-.121a11.53 11.53 0 00.417-3.097c0-3.094-1.591-5.583-3.562-7.162l-4.093 4.858c-.151.18-.265.12-.378-.061l-2.577-3.766c-.379-.544-.455-.786-.455-1.397V19.17c0-.305.151-.365.227-.426l8.716-5.767c.228-.181.378-.181.453-.06l2.428 3.886c.302.484.453.85.453 1.273v16.15c1.591 1.882 2.274 3.763 2.274 5.645 0 2.126-.645 4.188-2.312 6.375zm-4.736-26.894c0-.245-.038-.426-.189-.668l-1.403-2.244c-.075-.124-.113-.061-.228 0l-.91.665V34.53c0 .971.155 1.092.759 2.002.341.487.528.669.872.669.304 0 .795-.366 1.099-.669V19.353zm17.088 1.334c-.189.245-.378.366-.566.366-.191 0-.382-.12-.569-.366l-2.312-3.155-.227.303V34.71c0 .367 0 .427.151.608l.606.85c.644.85.795.971 1.478.548l.455-.306c.303-.181.378.06.189.363l-3.904 5.284c-.149.242-.188.181-.302.06l-2.994-4.31c-.34-.486-.455-.668-.455-1.337v-17.3l-.908-1.517c-.077-.122-.113-.122-.228 0l-1.137 1.031c-.34.302-.455-.121-.226-.423l3.902-5.284c.151-.181.228-.181.304-.06l2.652 4.188 2.614-4.128c.152-.181.265-.242.416 0l2.009 2.976c.379.544.605.85.834.85.151 0 .342-.121.57-.363l.528-.55c.342-.363.493.184.304.489l-3.184 4.307zm13.983 21.37c-.151.243-.191.182-.304.062l-3.449-4.858-4.091 4.858c-.151.18-.189.12-.342-.061l-2.613-3.766c-.416-.544-.454-.668-.454-1.397V19.17c0-.305.15-.365.226-.426l8.793-5.828c.15-.12.301-.12.452.121l2.35 3.765c.342.545.455.851.455 1.214v17.121l.681.97c.835 1.153.95 1.093 1.327.787l.531-.424c.34-.301.606-.06.302.364l-3.864 5.223zm-3.753-22.583c0-.366-.036-.547-.225-.85l-1.365-2.183c-.075-.124-.075-.061-.191 0l-.945.665v17.548c0 .605.075.908.34 1.273l.492.726c.34.487.759.729 1.252.366l.642-.487V19.474zm21.6 18.15l-3.447 4.253c-.381.483-.457.362-.912-.061l-3.598-3.524v7.102l1.021 1.4c.115.118.115.242 0 .424l-2.992 4.43c-.076.06-.151.181-.304 0l-3.334-4.31c-.113-.12-.073-.242 0-.426l.835-1.518v-26.1l-.835-1.64c-.037-.064-.073-.064-.151 0l-1.138.91c-.263.242-.453-.06-.227-.363l3.865-5.223c.113-.181.266-.181.341-.06l2.804 4.43 5.078-4.37c.153-.122.266-.06.302 0l2.541 3.766c.188.301.417.788.417 1.333v18.576c0 .426 0 .669-.266.97zm-4.51-17.968c0-.363-.076-.669-.226-.91l-1.062-1.64c-.075-.12-.15-.12-.266-.06l-1.893 1.155v19.242l1.061.547c.87.423 1.249.363 1.629-.181l.379-.548c.342-.487.378-1.031.378-2.002V19.656zm19.484 22.402c-.153.242-.153.181-.266.06l-3.032-4.31c-.302-.426-.453-.789-.453-1.578V19.595c0-.18 0-.365-.153-.547l-1.023-1.458c-.114-.118-.265-.179-.415-.058l-1.935 1.455v15.667c0 .242-.038.484.115.665l.87 1.213c.228.303.606.669.95.487l.301-.184c.38-.243.454.12.227.426l-3.485 4.797c-.151.242-.191.181-.304.06l-3.069-4.37c-.378-.487-.378-.608-.378-1.397V9.397c0-.302 0-.366-.191-.608l-.379-.548c-.38-.544-.53-.423-1.021-.057l-.759.544c-.113.061-.229-.181-.038-.487l4.015-5.401c.153-.242.153-.181.267-.06l2.425 3.583c.304.484.454.787.454 1.576v10.138l5.04-5.099c.153-.122.302-.122.417.06l2.463 3.645c.34.484.416.85.416 1.454v16.635c0 .306 0 .366.189.608l.949 1.273c.378.548.529.426 1.021.064l.759-.547c.115-.061.227.18.038.483l-4.015 5.405z" fill="#000"/></svg>