<svg width="177" height="41" fill="none" xmlns="http://www.w3.org/2000/svg"><path d="M6.797 13.5c0 1.597.58 1.72 3.067 1.782v.553H.249v-.553c1.99-.062 2.57-.246 2.57-1.782V3.178c0-1.598-.58-1.72-2.487-1.782V.843H17.24l.083 3.318h-.829c-.663-1.66-1.492-2.212-5.47-2.212h-3.15c-.994 0-1.16.123-1.16.799V7.54h3.481c3.233 0 3.896-.43 4.227-1.966h.746v5.345h-.746c-.414-1.781-1.658-2.273-4.227-2.273H6.714V13.5h.083zm20.058 0c0 1.597.58 1.72 3.067 1.782v.553H19.81v-.553c2.403-.062 3.066-.246 3.066-1.782V3.178c0-1.598-.497-1.72-3.066-1.782V.843h10.112v.553c-2.404.061-3.067.246-3.067 1.782V13.5zM50.89 3.547c0-1.475-.497-2.09-2.818-2.274V.72h7.211v.553c-2.238.185-2.818.799-2.818 2.274v12.595H51.39L37.464 4.222v8.725c0 1.475.497 2.089 2.818 2.273v.553h-7.21v-.553c2.237-.184 2.817-.799 2.817-2.273V2.87c-.663-.922-1.492-1.352-2.818-1.536V.782h5.553l12.184 10.445v-7.68h.083zm10.858 6.88l3.067-5.959 3.066 5.96H61.75zm14.588 5.408v-.553c-1.575 0-1.907-.43-2.653-1.844L66.474.413h-.995l-7.46 13.456c-.497.983-1.243 1.229-2.486 1.413v.553h6.547v-.553c-1.408 0-2.072-.246-2.072-.983 0-.614.995-2.335 1.16-2.765h7.377c.25.492 1.244 2.212 1.244 2.765 0 .737-.746.983-2.155.983v.553h8.702zm19.81-12.289c0-1.474-.498-2.089-2.818-2.273V.72h7.211v.553c-2.238.184-2.818.799-2.818 2.273v12.596h-1.078L82.72 4.222v8.725c0 1.474.497 2.089 2.818 2.273v.553h-7.211v-.553c2.238-.184 2.818-.799 2.818-2.273V2.87c-.663-.921-1.492-1.351-2.818-1.536V.781h5.553l12.184 10.445.083-7.68zm25.777 8.786c-2.155 2.704-4.973 3.933-9.117 3.933-6.631 0-10.609-3.195-10.609-8.05 0-3.44 3.646-7.802 10.774-7.802 2.155 0 5.139.921 5.636.921.581 0 .746-.245 1.327-.921h1.077l.415 5.038h-.829c-1.244-2.335-3.316-4.055-6.88-4.055-4.807 0-6.879 3.87-6.879 6.758 0 4.056 2.321 6.82 7.46 6.82 3.978 0 6.133-2.212 7.045-3.133l.58.491zm9.78 1.168c0 1.597.58 1.72 3.067 1.781v.553h-10.112v-.553c2.404-.061 3.067-.245 3.067-1.781V3.178c0-1.598-.581-1.72-3.067-1.782V.843h10.112v.553c-2.404.061-3.067.246-3.067 1.782V13.5zm11.438-3.072l3.067-5.96 3.066 5.96h-6.133zm14.588 5.406v-.552c-1.575 0-1.907-.43-2.652-1.844L147.866.413h-.995l-7.46 13.456c-.497.983-1.243 1.229-2.486 1.413v.553h6.548v-.553c-1.409 0-2.072-.246-2.072-.983 0-.614.994-2.335 1.16-2.765h7.377c.248.492 1.243 2.212 1.243 2.765 0 .737-.746.983-2.155.983v.553h8.703zm1.823 0v-.552c1.907-.062 2.487-.246 2.487-1.782V3.178c0-1.598-.58-1.72-2.487-1.782V.843h9.366v.553c-2.238.061-2.818.246-2.818 1.782v10.63c0 .92.332 1.228 2.569 1.228 3.647 0 5.802-.492 7.543-3.133h.746l-1.409 4.055h-16.163v-.123h.166zM4.559 39.675c2.32-.062 2.901-.246 2.901-1.782V26.279H4.974c-2.321 0-3.316.737-3.979 2.765H.166l.498-3.87h17.903l.497 3.87h-.829c-.663-2.089-1.574-2.765-3.978-2.765H11.77v11.613c0 1.597.58 1.72 2.901 1.781v.553h-9.78v-.553H4.56zm23.54-1.782c0 1.597.58 1.72 3.066 1.781v.553H21.053v-.553c2.404-.061 3.067-.245 3.067-1.781V27.57c0-1.598-.58-1.72-3.067-1.782v-.553h10.112v.553c-2.403.061-3.066.246-3.066 1.782v10.322zm24.45-12.78h7.045v.553c-1.906.061-2.486.245-2.486 1.781V37.83c0 1.597.58 1.72 2.486 1.782v.553h-9.2v-.553c1.99-.062 2.57-.246 2.57-1.782V27.2h-.083l-6.796 13.21h-.995L38.376 27.2h-.083v10.2c0 1.474.498 2.089 2.818 2.273v.553h-7.21v-.553c2.237-.184 2.817-.799 2.817-2.273V27.078c0-1.045-.58-1.414-2.818-1.414v-.553h7.377l5.388 10.507 5.884-10.507zm9.864 15.114v-.553c1.906-.061 2.486-.245 2.486-1.781V27.57c0-1.598-.58-1.72-2.486-1.782v-.553h16.991l.083 3.318h-.829c-.663-1.66-1.491-2.212-5.47-2.212h-3.15c-.994 0-1.16.123-1.16.798v4.793h3.481c3.233 0 3.896-.43 4.227-1.966h.746v5.345h-.746C76.172 33.53 74.93 33.1 72.36 33.1h-3.48v5.223c0 .921.33 1.228 3.978 1.228 3.647 0 5.802-.491 7.542-3.133h.746l-1.409 4.055h-17.49v-.246h.166zm21.55-4.73h.746c.828 1.966 3.48 4.116 6.465 4.116 2.569 0 3.48-1.352 3.48-2.52 0-3.501-10.608-4.116-10.608-8.416 0-2.09 2.652-3.871 5.801-3.871 3.067 0 4.145.799 5.47.799.58 0 .995-.308 1.078-.8h.746v4.855h-.746c-.829-2.212-2.984-3.81-5.719-3.81-2.238 0-3.15 1.106-3.15 2.15 0 3.073 10.61 3.134 10.61 8.48 0 2.396-2.57 4.178-6.3 4.178-3.563 0-4.475-.922-5.884-.922-.497 0-.829.246-1.078.799h-1.077l.166-5.038z" fill="#515151"/></svg>