<svg width="177" height="41" viewBox="0 0 177 41" fill="none" xmlns="http://www.w3.org/2000/svg">
<path d="M6.79737 13.4999C6.79737 15.0974 7.37755 15.2202 9.864 15.2817V15.8347H0.249463V15.2817C2.23874 15.2202 2.81881 15.0359 2.81881 13.4999V3.17779C2.81881 1.58032 2.23863 1.45747 0.33225 1.396V0.84303H17.2402L17.3231 4.16082H16.4942C15.8312 2.50187 15.0024 1.94893 11.024 1.94893H7.87441C6.8798 1.94893 6.71404 2.07181 6.71404 2.74765V7.54007H10.1952C13.4277 7.54007 14.0907 7.10999 14.4222 5.57397H15.1682V10.9193H14.4222C14.0078 9.13755 12.7645 8.64607 10.1952 8.64607H6.71404V13.4999H6.79692L6.79737 13.4999ZM26.8549 13.4999C26.8549 15.0974 27.4351 15.2202 29.9215 15.2817V15.8347H19.8097V15.2817C22.2133 15.2202 22.8763 15.0359 22.8763 13.4999V3.17779C22.8763 1.58032 22.379 1.45747 19.8097 1.396V0.84303H29.9215V1.396C27.5179 1.45744 26.8549 1.64177 26.8549 3.17779V13.4999ZM50.8912 3.54652C50.8912 2.07189 50.3939 1.45758 48.0732 1.27326V0.720295H55.2841V1.27326C53.0462 1.45759 52.4661 2.07199 52.4661 3.54652V16.1423H51.3887L37.4641 4.22232V12.9469C37.4641 14.4216 37.9614 15.0359 40.2821 15.2202V15.7732H33.0712V15.2202C35.3091 15.0359 35.8892 14.4215 35.8892 12.9469V2.87063C35.2261 1.94902 34.3974 1.51895 33.0712 1.33463V0.781661H38.6244L50.8083 11.2266V3.54651L50.8912 3.54652ZM61.749 10.4279L64.8156 4.4681L67.8822 10.4279H61.7488H61.749ZM76.3366 15.8347V15.2818C74.7619 15.2818 74.4303 14.8517 73.6844 13.4385L66.4735 0.41324H65.4788L58.0193 13.869C57.522 14.8521 56.776 15.0979 55.5327 15.2822V15.8352H62.0805V15.2822C60.6715 15.2822 60.0084 15.0364 60.0084 14.2991C60.0084 13.6847 61.003 11.9644 61.1688 11.5343H68.5454C68.7941 12.0258 69.7887 13.7462 69.7887 14.2991C69.7887 15.0364 69.0427 15.2822 67.6337 15.2822V15.8352H76.3364L76.3366 15.8347ZM96.1456 3.54632C96.1456 2.07168 95.6483 1.45737 93.3277 1.27305V0.720083H100.539V1.27305C98.3006 1.45738 97.7206 2.07178 97.7206 3.54632V16.1421H96.6431L82.7186 4.2221V12.9467C82.7186 14.4214 83.2159 15.0357 85.5365 15.22V15.773H78.3256V15.22C80.5636 15.0357 81.1436 14.4213 81.1436 12.9467V2.87042C80.4806 1.94881 79.6518 1.51874 78.3256 1.33442V0.781452H83.8788L96.0627 11.2264L96.1456 3.54629L96.1456 3.54632ZM121.923 12.3323C119.768 15.0357 116.95 16.2645 112.806 16.2645C106.175 16.2645 102.197 13.0696 102.197 8.21579C102.197 4.77505 105.843 0.412842 112.971 0.412842C115.126 0.412842 118.11 1.33445 118.607 1.33445C119.188 1.33445 119.353 1.08868 119.934 0.412842H121.011L121.426 5.45095H120.597C119.353 3.11621 117.281 1.39589 113.717 1.39589C108.91 1.39589 106.838 5.26663 106.838 8.15442C106.838 12.2095 109.159 14.9743 114.298 14.9743C118.276 14.9743 120.431 12.7624 121.343 11.8408L121.923 12.3324L121.923 12.3323ZM131.703 13.4997C131.703 15.0972 132.283 15.22 134.77 15.2815V15.8344H124.658V15.2815C127.062 15.22 127.725 15.0357 127.725 13.4997V3.17758C127.725 1.5801 127.144 1.45726 124.658 1.39579V0.842822H134.77V1.39579C132.366 1.45723 131.703 1.64156 131.703 3.17758V13.4997ZM143.141 10.4277L146.208 4.4679L149.274 10.4277H143.141H143.141ZM157.729 15.8345V15.2816C156.154 15.2816 155.822 14.8515 155.077 13.4383L147.866 0.413031H146.871L139.411 13.8688C138.914 14.8519 138.168 15.0977 136.925 15.282V15.8349H143.473V15.282C142.064 15.282 141.401 15.0362 141.401 14.2989C141.401 13.6845 142.395 11.9642 142.561 11.5341H149.938C150.186 12.0256 151.181 13.746 151.181 14.2989C151.181 15.0362 150.435 15.282 149.026 15.282V15.8349H157.729L157.729 15.8345ZM159.552 15.8345V15.2816C161.459 15.2201 162.039 15.0358 162.039 13.4998V3.17766C162.039 1.58019 161.459 1.45735 159.552 1.39587V0.842905H168.918V1.39587C166.68 1.45732 166.1 1.64164 166.1 3.17766V13.8071C166.1 14.7287 166.432 15.036 168.669 15.036C172.316 15.036 174.471 14.5445 176.212 11.9025H176.958L175.549 15.9576H159.386V15.8347L159.552 15.8345ZM4.55916 39.6735C6.87987 39.612 7.46008 39.4277 7.46008 37.8917V26.2791H4.97352C2.65281 26.2791 1.6581 27.0163 0.995102 29.0439H0.16626L0.663563 25.1732H18.5669L19.0642 29.0439H18.2354C17.5723 26.955 16.6606 26.2791 14.257 26.2791H11.7704V37.8917C11.7704 39.4892 12.3506 39.612 14.6713 39.6735V40.2264H4.89107V39.6735H4.55953H4.55916ZM28.0985 37.8917C28.0985 39.4892 28.6787 39.612 31.1651 39.6735V40.2264H21.0533V39.6735C23.457 39.612 24.12 39.4277 24.12 37.8917V27.5696C24.12 25.9721 23.5398 25.8493 21.0533 25.7878V25.2348H31.1651V25.7878C28.7615 25.8492 28.0985 26.0336 28.0985 27.5696V37.8917ZM52.5495 25.1117H59.5945V25.6646C57.6882 25.7261 57.108 25.9104 57.108 27.4464V37.8299C57.108 39.4274 57.6882 39.5502 59.5945 39.6117V40.1647H50.3945V39.6117C52.3838 39.5503 52.9638 39.3659 52.9638 37.8299V27.2004H52.881L46.0846 40.4099H45.09L38.3763 27.2004H38.2934V37.3996C38.2934 38.8742 38.7907 39.4885 41.1114 39.6729V40.2258H33.9005V39.6729C36.1385 39.4885 36.7185 38.8741 36.7185 37.3996V27.0775C36.7185 26.033 36.1383 25.6643 33.9005 25.6643V25.1114H41.2771L46.6646 35.6178L52.5494 25.1114L52.5495 25.1117ZM62.4127 40.2264V39.6735C64.319 39.612 64.8992 39.4277 64.8992 37.8917V27.5696C64.8992 25.9721 64.3191 25.8492 62.4127 25.7878V25.2348H79.4044L79.4873 28.5526H78.6584C77.9954 26.8936 77.1666 26.3407 73.1882 26.3407H70.0386C69.044 26.3407 68.8783 26.4636 68.8783 27.1394V31.9318H72.3594C75.5919 31.9318 76.2549 31.5018 76.5864 29.9657H77.3324V35.3111H76.5864C76.172 33.5293 74.9287 33.0992 72.3594 33.0992H68.8783V38.3216C68.8783 39.2432 69.2098 39.5505 72.8567 39.5505C76.5035 39.5505 78.6585 39.0589 80.3991 36.417H81.1451L79.7361 40.472H62.2473V40.2263L62.4127 40.2264ZM83.9626 35.4955H84.7085C85.5374 37.4616 88.1897 39.612 91.1735 39.612C93.7429 39.612 94.6547 38.2603 94.6547 37.0929C94.6547 33.5908 84.0456 32.9764 84.0456 28.6756C84.0456 26.5866 86.6978 24.8048 89.8474 24.8048C92.914 24.8048 93.9915 25.6036 95.3177 25.6036C95.8979 25.6036 96.3123 25.2964 96.3951 24.8048H97.1411V29.6586H96.3951C95.5663 27.4467 93.4113 25.8493 90.6762 25.8493C88.4383 25.8493 87.5267 26.9552 87.5267 27.9997C87.5267 31.0717 98.1358 31.1332 98.1358 36.4785C98.1358 38.8747 95.5664 40.6565 91.8367 40.6565C88.2726 40.6565 87.3609 39.7349 85.9519 39.7349C85.4546 39.7349 85.123 39.9807 84.8744 40.5336H83.7969L83.9627 35.4955L83.9626 35.4955Z" fill="#515151"/>
</svg>
